<svg id="Iconly_Bulk_Call" data-name="Iconly/Bulk/Call" xmlns="http://www.w3.org/2000/svg" width="98" height="98" viewBox="0 0 98 98">
  <g id="Call" transform="translate(8.167 8.167)">
    <path id="Call-2" data-name="Call" d="M66.015,50.548c-2.743-.59-4.913.683-6.834,1.8-1.968,1.146-5.709,4.181-7.853,3.4-10.98-4.521-21.306-14.131-25.776-25.154-.788-2.19,2.233-5.955,3.371-7.946,1.1-1.927,2.351-4.117,1.782-6.881C30.19,13.284,23.541,4.824,21.19,2.511a7.809,7.809,0,0,0-4.769-2.5C10.291-.257,3.444,7.923,2.244,9.879-.765,14.052-.748,19.6,2.294,26.336,9.625,44.419,37.352,71.708,55.5,79.315a21.933,21.933,0,0,0,9.164,2.352,11.918,11.918,0,0,0,7.15-2.241c1.555-.9,10.07-8.082,9.846-14.377a7.926,7.926,0,0,0-2.482-4.763c-2.3-2.373-10.7-9.22-13.166-9.737" transform="translate(0 0)" fill="#326bf1"/>
  </g>
</svg>
