<svg id="Iconly_Bulk_Call" data-name="Iconly/Bulk/Call" xmlns="http://www.w3.org/2000/svg" width="81" height="81" viewBox="0 0 81 81">
  <g id="Call" transform="translate(6.75 6.75)">
    <path id="Call-2" data-name="Call" d="M54.563,41.78c-2.267-.488-4.06.565-5.648,1.484-1.626.947-4.719,3.456-6.491,2.814-9.075-3.736-17.61-11.68-21.3-20.791-.651-1.81,1.846-4.922,2.786-6.568.912-1.593,1.943-3.4,1.473-5.687-.425-2.052-5.92-9.045-7.863-10.957A6.455,6.455,0,0,0,13.572.005C8.506-.212,2.847,6.548,1.854,8.166-.632,11.614-.618,16.2,1.9,21.768c6.059,14.946,28.977,37.5,43.978,43.789A18.128,18.128,0,0,0,53.449,67.5a9.85,9.85,0,0,0,5.91-1.852c1.285-.74,8.323-6.68,8.138-11.883a6.551,6.551,0,0,0-2.051-3.936c-1.9-1.961-8.845-7.62-10.882-8.048" transform="translate(0 0)" fill="#fff"/>
  </g>
</svg>
