<svg id="Iconly_Bulk_Home" data-name="Iconly/Bulk/Home" xmlns="http://www.w3.org/2000/svg" width="81.805" height="81.805" viewBox="0 0 81.805 81.805">
  <g id="Home" transform="translate(8.521 6.817)">
    <path id="Home-2" data-name="Home" d="M22.646,64.02V53.566a4.835,4.835,0,0,1,4.822-4.818h9.8a4.835,4.835,0,0,1,4.853,4.818h0V63.989A4.2,4.2,0,0,0,46.3,68.171h6.684a11.794,11.794,0,0,0,8.328-3.406,11.623,11.623,0,0,0,3.452-8.26V26.811a8.429,8.429,0,0,0-3.052-6.484L39,2.3a10.619,10.619,0,0,0-13.49.242L3.3,20.327A8.434,8.434,0,0,0,0,26.811V56.475a11.738,11.738,0,0,0,11.781,11.7h6.531a4.2,4.2,0,0,0,2.976-1.205,4.136,4.136,0,0,0,1.235-2.946Z" fill="#fff"/>
  </g>
</svg>
