<svg id="Iconly_Bulk_Category" data-name="Iconly/Bulk/Category" xmlns="http://www.w3.org/2000/svg" width="81" height="81" viewBox="0 0 81 81">
  <g id="Category" transform="translate(6.75 6.75)">
    <path id="Fill_1" data-name="Fill 1" d="M8.568,0H20a8.6,8.6,0,0,1,8.568,8.64V20.164A8.6,8.6,0,0,1,20,28.8H8.568A8.6,8.6,0,0,1,0,20.164V8.64A8.6,8.6,0,0,1,8.568,0" transform="translate(38.937 0)" fill="#200e32" opacity="0.4"/>
    <path id="Combined_Shape" data-name="Combined Shape" d="M47.5,67.5a8.6,8.6,0,0,1-8.566-8.639V47.336A8.6,8.6,0,0,1,47.5,38.695h11.43A8.6,8.6,0,0,1,67.5,47.336V58.861A8.6,8.6,0,0,1,58.934,67.5Zm-38.935,0A8.605,8.605,0,0,1,0,58.861V47.336a8.606,8.606,0,0,1,8.569-8.642H20a8.6,8.6,0,0,1,8.566,8.642V58.861A8.6,8.6,0,0,1,20,67.5Zm0-38.695A8.6,8.6,0,0,1,0,20.163V8.639A8.6,8.6,0,0,1,8.569,0H20a8.6,8.6,0,0,1,8.566,8.639V20.163A8.6,8.6,0,0,1,20,28.8Z" transform="translate(0 0)" fill="#200e32"/>
  </g>
</svg>
