<svg id="Iconly_Bulk_Category" data-name="Iconly/Bulk/Category" xmlns="http://www.w3.org/2000/svg" width="98" height="98" viewBox="0 0 98 98">
  <g id="Category" transform="translate(8.167 8.167)">
    <path id="Fill_1" data-name="Fill 1" d="M10.366,0H24.192A10.408,10.408,0,0,1,34.557,10.453V24.4A10.408,10.408,0,0,1,24.192,34.849H10.366A10.408,10.408,0,0,1,0,24.4V10.453A10.408,10.408,0,0,1,10.366,0" transform="translate(47.109 0)" fill="#326bf1" opacity="0.4"/>
    <path id="Combined_Shape" data-name="Combined Shape" d="M57.473,81.666A10.408,10.408,0,0,1,47.11,71.214V57.271A10.409,10.409,0,0,1,57.473,46.816H71.3A10.409,10.409,0,0,1,81.666,57.271V71.214A10.408,10.408,0,0,1,71.3,81.666Zm-47.106,0A10.411,10.411,0,0,1,0,71.214V57.271A10.412,10.412,0,0,1,10.367,46.816H24.193A10.409,10.409,0,0,1,34.556,57.271V71.214A10.408,10.408,0,0,1,24.193,81.666Zm0-46.816A10.41,10.41,0,0,1,0,24.395V10.452A10.409,10.409,0,0,1,10.367,0H24.193A10.406,10.406,0,0,1,34.556,10.452V24.395A10.407,10.407,0,0,1,24.193,34.85Z" transform="translate(0 0)" fill="#326bf1"/>
  </g>
</svg>
