<svg id="Iconly_Bulk_Document" data-name="Iconly/Bulk/Document" xmlns="http://www.w3.org/2000/svg" width="81" height="81" viewBox="0 0 81 81">
  <g id="Document" transform="translate(10.125 6.75)">
    <path id="Path" d="M44.52,0H16.234C5.974,0,0,6.007,0,16.3V51.165C0,61.628,5.974,67.5,16.234,67.5H44.52c10.425,0,16.23-5.872,16.23-16.335V16.3C60.75,6.007,54.945,0,44.52,0" fill="#200e32" opacity="0.4"/>
    <path id="Combined_Shape" data-name="Combined Shape" d="M.4,34.761a2.691,2.691,0,0,1,0-2.834,2.65,2.65,0,0,1,2.533-1.248H29.4a2.666,2.666,0,0,1,0,5.3H2.937a2.47,2.47,0,0,1-.33.022A2.644,2.644,0,0,1,.4,34.761ZM2.937,20.555a2.635,2.635,0,0,1,0-5.27H29.4a2.635,2.635,0,0,1,0,5.27Zm0-15.257a2.632,2.632,0,1,1,0-5.264V0H13.024a2.649,2.649,0,0,1,0,5.3Z" transform="translate(14.21 15.694)" fill="#200e32"/>
  </g>
</svg>
