<svg id="Iconly_Bulk_Document" data-name="Iconly/Bulk/Document" xmlns="http://www.w3.org/2000/svg" width="98" height="98" viewBox="0 0 98 98">
  <g id="Document" transform="translate(12.25 8.167)">
    <path id="Path" d="M53.863,0H19.641C7.227,0,0,7.268,0,19.722V61.9C0,74.562,7.227,81.667,19.641,81.667H53.863c12.613,0,19.637-7.1,19.637-19.763V19.722C73.5,7.268,66.477,0,53.863,0" fill="#326bf1" opacity="0.4"/>
    <path id="Combined_Shape" data-name="Combined Shape" d="M.488,42.057a3.256,3.256,0,0,1,0-3.429,3.206,3.206,0,0,1,3.065-1.51H35.566a3.225,3.225,0,0,1,0,6.409H3.553a2.988,2.988,0,0,1-.4.027A3.2,3.2,0,0,1,.488,42.057ZM3.553,24.869a3.188,3.188,0,0,1,0-6.376H35.566a3.188,3.188,0,0,1,0,6.376Zm0-18.46a3.184,3.184,0,1,1,0-6.369V0h12.2a3.2,3.2,0,0,1,0,6.409Z" transform="translate(17.192 18.988)" fill="#326bf1"/>
  </g>
</svg>
