<svg id="Iconly_Bulk_Message" data-name="Iconly/Bulk/Message" xmlns="http://www.w3.org/2000/svg" width="61" height="61" viewBox="0 0 61 61">
  <path id="Fill_1" data-name="Fill 1" d="M50.833,18.155A12.827,12.827,0,0,1,38.049,31.016H12.835A12.827,12.827,0,0,1,0,18.206v-.025S.015,6.931.036,1.274a1.267,1.267,0,0,1,2.054-1C8.128,5.068,18.928,13.8,19.063,13.918a10.338,10.338,0,0,0,6.43,2.262,10.2,10.2,0,0,0,6.43-2.29C32.058,13.8,42.616,5.328,48.747.458a1.27,1.27,0,0,1,2.061.991c.025,5.615.025,16.706.025,16.706" transform="translate(5.083 22.359)" fill="#326bf1" opacity="0.4"/>
  <path id="Fill_4" data-name="Fill 4" d="M48.223,6.8A12.8,12.8,0,0,0,36.923,0H11.557A12.8,12.8,0,0,0,.257,6.8a2.195,2.195,0,0,0,.562,2.74L19.69,24.631a7.184,7.184,0,0,0,4.524,1.6h.051a7.184,7.184,0,0,0,4.524-1.6L47.661,9.536a2.195,2.195,0,0,0,.562-2.74" transform="translate(6.362 7.624)" fill="#326bf1"/>
</svg>
