<svg id="Iconly_Bulk_Call" data-name="Iconly/Bulk/Call" xmlns="http://www.w3.org/2000/svg" width="61" height="61" viewBox="0 0 61 61">
  <g id="Call" transform="translate(5.083 5.083)">
    <path id="Call-2" data-name="Call" d="M41.091,31.464a5.793,5.793,0,0,0-4.254,1.118c-1.225.713-3.553,2.6-4.888,2.119C25.114,31.887,18.687,25.9,15.9,19.043c-.49-1.363,1.39-3.707,2.1-4.946a5.936,5.936,0,0,0,1.109-4.283C18.792,8.268,14.653,3,13.19,1.563A4.861,4.861,0,0,0,10.221,0C6.405-.16,2.144,4.931,1.4,6.149c-1.872,2.6-1.862,6.053.031,10.244C5.991,27.649,23.25,44.635,34.548,49.37a13.652,13.652,0,0,0,5.7,1.464,7.418,7.418,0,0,0,4.45-1.4c.968-.557,6.268-5.031,6.129-8.949a4.934,4.934,0,0,0-1.545-2.964c-1.429-1.477-6.661-5.739-8.2-6.061" transform="translate(0 0)" fill="#326bf1"/>
  </g>
</svg>
