<svg id="Iconly_Bulk_Location" data-name="Iconly/Bulk/Location" xmlns="http://www.w3.org/2000/svg" width="61" height="61" viewBox="0 0 61 61">
  <g id="Location" transform="translate(12.708 5.083)">
    <path id="Path_34175" d="M17.9,43.209h0a2.093,2.093,0,0,1-.992-.3,46.9,46.9,0,0,1-12.3-11.559A23.452,23.452,0,0,1,0,18.133,18.214,18.214,0,0,1,8.976,2.382a17.509,17.509,0,0,1,17.879.146,18.438,18.438,0,0,1,6.419,6.8,18.857,18.857,0,0,1,2.308,9.131c-.111,5.688-2.992,11.8-8.114,17.22a47.658,47.658,0,0,1-8.537,7.167,2.981,2.981,0,0,1-1.034.366Zm-.125-30.886a5.953,5.953,0,0,0-4.267,1.794,6.215,6.215,0,0,0-1.32,6.712,6.022,6.022,0,0,0,5.584,3.806h.042a5.915,5.915,0,0,0,4.238-1.784A6.24,6.24,0,0,0,20.1,12.8,5.918,5.918,0,0,0,17.773,12.322Z" transform="translate(0 0)" fill="#326bf1"/>
    <ellipse id="Ellipse_743" cx="12.708" cy="2.542" rx="12.708" ry="2.542" transform="translate(5.083 45.75)" fill="#326bf1" opacity="0.4"/>
  </g>
</svg>
