<svg id="Icons_Messaging_send-2" data-name="Icons / Messaging / send-2" xmlns="http://www.w3.org/2000/svg" width="57.385" height="57.377" viewBox="0 0 57.385 57.377">
  <g id="send-2" transform="translate(0.101 0.666)">
    <path id="Path" d="M53.349.132,1.614,19.761a2.519,2.519,0,0,0-1.185.933,2.464,2.464,0,0,0,.053,2.854,2.521,2.521,0,0,0,1.218.89l11.489,3.973a3.67,3.67,0,0,0,3.077-.316l25.1-14.94a.828.828,0,0,1,1.017.22.8.8,0,0,1-.02,1.027L23.533,33.283a3.13,3.13,0,0,0-.786,1.048,3.091,3.091,0,0,0-.285,1.273l-.09,19.483a1.718,1.718,0,0,0,.428,1.03,1.763,1.763,0,0,0,2.892-.37L32.608,41.9a2.952,2.952,0,0,1,1.806-1.287,2.988,2.988,0,0,1,2.2.323l12.272,6.682a2.693,2.693,0,0,0,2.563,0,2.648,2.648,0,0,0,.965-.893,2.6,2.6,0,0,0,.411-1.241L55.733,1.7a1.679,1.679,0,0,0-.2-.8,1.7,1.7,0,0,0-.563-.614A1.738,1.738,0,0,0,53.349.132Z" transform="translate(0)" fill="#fff"/>
  </g>
</svg>
